<mxfile host="app.diagrams.net" modified="2020-08-20T09:23:27.453Z" agent="5.0 (Macintosh; Intel Mac OS X 10_15_6) AppleWebKit/605.1.15 (KHTML, like Gecko) Version/13.1.2 Safari/605.1.15" etag="PSHfVqXZNFpu5oguw4y_" version="13.6.4" type="github">
  <diagram id="CZ-B9BOyb03Dr3ZJmCMU" name="Page-1">
    <mxGraphModel dx="786" dy="471" grid="1" gridSize="10" guides="1" tooltips="1" connect="1" arrows="1" fold="1" page="1" pageScale="1" pageWidth="827" pageHeight="1169" math="0" shadow="0">
      <root>
        <mxCell id="0" />
        <mxCell id="1" parent="0" />
        <mxCell id="699FdliAb1Y-qmWW1HFs-1" value="Das ist ein Test" style="rounded=0;whiteSpace=wrap;html=1;" vertex="1" parent="1">
          <mxGeometry x="80" y="200" width="160" height="80" as="geometry" />
        </mxCell>
        <mxCell id="699FdliAb1Y-qmWW1HFs-2" value="" style="endArrow=classic;html=1;exitX=1;exitY=0.5;exitDx=0;exitDy=0;entryX=0;entryY=0.5;entryDx=0;entryDy=0;" edge="1" parent="1" source="699FdliAb1Y-qmWW1HFs-1" target="699FdliAb1Y-qmWW1HFs-3">
          <mxGeometry width="50" height="50" relative="1" as="geometry">
            <mxPoint x="380" y="430" as="sourcePoint" />
            <mxPoint x="290" y="240" as="targetPoint" />
            <Array as="points" />
          </mxGeometry>
        </mxCell>
        <mxCell id="699FdliAb1Y-qmWW1HFs-3" value="Ein zentraler Punkt..." style="shape=hexagon;perimeter=hexagonPerimeter2;whiteSpace=wrap;html=1;fixedSize=1;" vertex="1" parent="1">
          <mxGeometry x="300" y="200" width="120" height="80" as="geometry" />
        </mxCell>
        <mxCell id="699FdliAb1Y-qmWW1HFs-5" value="" style="curved=1;endArrow=classic;html=1;entryX=0.5;entryY=1;entryDx=0;entryDy=0;exitX=0.5;exitY=1;exitDx=0;exitDy=0;" edge="1" parent="1" source="699FdliAb1Y-qmWW1HFs-1" target="699FdliAb1Y-qmWW1HFs-3">
          <mxGeometry width="50" height="50" relative="1" as="geometry">
            <mxPoint x="240" y="300" as="sourcePoint" />
            <mxPoint x="360" y="280" as="targetPoint" />
            <Array as="points">
              <mxPoint x="260" y="350" />
            </Array>
          </mxGeometry>
        </mxCell>
        <mxCell id="699FdliAb1Y-qmWW1HFs-6" value="" style="curved=1;endArrow=classic;html=1;entryX=0.5;entryY=0;entryDx=0;entryDy=0;exitX=0.5;exitY=0;exitDx=0;exitDy=0;" edge="1" parent="1" source="699FdliAb1Y-qmWW1HFs-1" target="699FdliAb1Y-qmWW1HFs-3">
          <mxGeometry width="50" height="50" relative="1" as="geometry">
            <mxPoint x="250" y="150" as="sourcePoint" />
            <mxPoint x="300" y="100" as="targetPoint" />
            <Array as="points">
              <mxPoint x="260" y="110" />
            </Array>
          </mxGeometry>
        </mxCell>
        <mxCell id="699FdliAb1Y-qmWW1HFs-10" value="" style="curved=1;endArrow=classic;html=1;shadow=0;exitX=1;exitY=0.5;exitDx=0;exitDy=0;entryX=0;entryY=0.5;entryDx=0;entryDy=0;" edge="1" parent="1" source="699FdliAb1Y-qmWW1HFs-3" target="699FdliAb1Y-qmWW1HFs-1">
          <mxGeometry width="50" height="50" relative="1" as="geometry">
            <mxPoint x="450" y="230" as="sourcePoint" />
            <mxPoint x="260" y="370" as="targetPoint" />
            <Array as="points">
              <mxPoint x="450" y="310" />
              <mxPoint x="370" y="360" />
              <mxPoint x="150" y="390" />
              <mxPoint y="300" />
            </Array>
          </mxGeometry>
        </mxCell>
      </root>
    </mxGraphModel>
  </diagram>
</mxfile>
